<?xml version="1.0" encoding="UTF-8"?><svg id="Layer_1" xmlns="http://www.w3.org/2000/svg" xmlns:xlink="http://www.w3.org/1999/xlink" viewBox="0 0 212 100"><defs><clipPath id="clippath"><rect width="212" height="100" style="fill:none;"/></clipPath></defs><g style="clip-path:url(#clippath);"><path d="m356.99899-227.92c.02402.29601-.267.552-.64999.571-25.68201,1.252-70.715,6.302-105.366,31.005-26.808,19.112-39.819,44.58299-45.31,72.643-5.492,28.0675-3.451,58.68079-.2,88.0307.752,6.7879,1.569,13.5101,2.37199,20.1175,2.666,21.93343,5.17799,42.6026,4.646,60.2155-.692,22.889-6.524,40.876-24.18199,49.7498-10.067,5.059-22.326,6.3225-36.09401,4.7728-13.763-1.54881-29.085-5.91261-45.349-12.1583C74.3413,74.536,37.8997,54.4564,2.40637,34.0522c-7.02434-4.0381-14.01127-8.0887-20.92387-12.0962C-46.5592,5.69891-73.3781-9.84919-96.5132-20.977c-14.4198-6.9359-27.3618-12.131-38.24181-14.7125-10.90199-2.5868-19.55499-2.5084-25.575.8853-5.73599,3.2341-9.39,9.6543-9.30499,20.9452.084,11.28089,3.90399,27.302,12.922,49.5512,18.033,44.4914,56.7952,113.7478,127.7146,219.5208.177.26401.0441.589-.2968.726-.3408.13699-.7606.03401-.9375-.23-70.9283-105.787-109.73629-175.1105-127.80729-219.6944-9.03401-22.2884-12.90001-38.42869-12.98601-49.8673-.086-11.4285,3.606-18.2859,9.87801-21.8219,6.56099-3.6994,15.76999-3.6616,26.80099-1.0443,11.053,2.6227,24.117,7.8766,38.5678,14.8273C-72.5874-10.7364-45.7035,4.84957-17.657,21.1096c6.9063,4.0039,13.883,8.0486,20.89245,12.0782,35.50125,20.4087,71.85015,40.4321,104.24855,52.8747,16.199,6.2209,31.372,10.5315,44.93099,12.0573,13.552,1.5251,25.43901.26321,35.13701-4.6104,17.013-8.5497,22.85699-26.0011,23.548-48.8718.53099-17.5436-1.97-38.12314-4.634-60.0416-.804-6.6183-1.62401-13.3586-2.379-20.1743-3.252-29.3584-5.308-60.0811.211-88.2837,5.51999-28.209,18.62599-53.942,45.743-73.274,35.01299-24.961,80.45299-30.03101,106.21999-31.28799.384-.01801.71402.207.73801.504Z" style="fill:#45c3f7; fill-rule:evenodd;"/><path d="m356.33401-228.326c.00598.29901-.302.54601-.68903.55-29.01797.342-74.353,5.481-108.67099,30.105l-.00099.00101c-26.45801,18.923-39.23001,44.12199-44.54701,71.88499-5.31799,27.77-3.16899,58.0597.17101,87.1163.76801,6.6853,1.60001,13.307,2.41701,19.8177,2.73299,21.75861,5.31,42.2771,4.84698,59.7808-.601,22.7117-6.31799,40.6062-23.793,49.53151v.0002c-9.957,5.0786-22.09599,6.40459-35.73999,4.94939-13.638-1.4546-28.83-5.69209-44.964-11.78979C73.0978,71.4263,36.9082,51.7305,1.60651,31.7142c-6.63405-3.7615-13.23651-7.5342-19.77611-11.271C-46.4553,4.2805-73.5658-11.2107-96.9765-22.2237c-14.4125-6.7798-27.3755-11.8394-38.3125-14.3163-10.95599-2.4814-19.70999-2.3343-25.87199,1.0979l-.00101.0004c-5.92,3.2896-9.79399,9.7407-10.00299,21.0093-.209,11.26214,3.25,27.2241,11.82399,49.3594,17.147,44.26381,54.695,113.071,123.9489,218.057.1759.26601.0393.593-.3051.729-.3444.136-.7662.03-.9421-.23599-69.2637-105-106.8587-173.87801-124.04271-218.23851-8.59099-22.1769-12.09499-38.26202-11.883-49.6865.21201-11.4177,4.14101-18.2928,10.586-21.8742,6.694-3.7282,15.989-3.771,27.084-1.2585,11.11301,2.517,24.201,7.6351,38.64581,14.4304C-72.7791-12.1093-45.6022,3.42004-17.3136,19.5846c6.5339,3.7336,13.12709,7.501,19.7476,11.2549,35.3106,20.0213,71.406,39.6608,103.545,51.8072,16.068,6.07301,31.109,10.2576,44.54,11.6901,13.424,1.4318,25.19.11,34.77901-4.7807,16.83099-8.5973,22.562-25.9567,23.16299-48.6485.461-17.4336-2.104-37.86204-4.83499-59.6058-.819-6.5216-1.653-13.1615-2.42401-19.8744-3.341-29.0649-5.506-59.465-.162-87.3714,5.34601-27.914,18.21301-53.377,44.983-72.52299,34.692-24.89101,80.44801-30.04901,109.601-30.39301.38602-.004.70401.235.71002.534Z" style="fill:#47c2f7; fill-rule:evenodd;"/><path d="m354.948-228.20399c-32.36099-.56801-77.99701,4.661-111.983,29.20599l-.00099.00101c-26.10901,18.73399-38.642,43.661-43.785,71.12699-5.144,27.473-2.886,57.439.54199,86.2023.78401,6.582,1.63,13.1027,2.46201,19.5162,2.8,21.58423,5.442,41.9527,5.049,59.3477-.511,22.5345-6.11299,40.3363-23.403,49.3131l-.00099.0004c-9.84801,5.0984-21.867,6.48711-35.386,5.12611-13.513-1.36031-28.57401-5.4716-44.579-11.4212C71.8551,68.3161,35.9174,49.004.80735,29.3756c-6.25416-3.4964-12.48186-7.0027-18.65675-10.4792C-46.3663,2.84079-73.7584-12.5815-97.439-23.4709c-14.405-6.6239-27.389-11.5481-38.383-13.9204-11.00999-2.376-19.86499-2.1599-26.17,1.3106l-.00099.0007c-6.104,3.3449-10.19901,9.8269-10.701,21.0736-.502,11.24359,2.595,27.1464,10.726,49.1678,16.26001,44.0363,52.594,112.3946,120.1829,216.59161.1748.26999.0343.59799-.3137.73299-.348.13501-.7718.02701-.9466-.243-67.5986-104.21199-103.9806-172.6442-120.27861-216.7815-8.14699-22.0655-11.289-38.09537-10.77899-49.5056.509-11.4073,4.677-18.3003,11.295-21.9271,6.826-3.7563,16.209-3.8793,27.36501-1.4718,11.174,2.4112,24.285,7.3935,38.72419,14.0334C-72.9762-13.4917-45.5164,1.96897-16.9987,18.0252c6.17,3.4739,12.38954,6.9756,18.63165,10.4653,35.11985,19.6339,70.96185,38.8894,102.84005,50.7399,15.939,5.9249,30.84701,9.9834,44.15,11.3227,13.297,1.3386,24.94-.043,34.42-4.9505,16.651-8.6448,22.269-25.9124,22.778-48.4255.39301-17.3244-2.23801-37.60252-5.036-59.1724-.83301-6.4241-1.681-12.9628-2.46901-19.5721-3.42799-28.7715-5.702-58.8486-.532-86.45959,5.17101-27.617,17.799-52.81201,44.22101-71.77101,34.37201-24.823,80.44598-30.06799,112.97501-29.49699.38898.006.698.256.689.558-.009.30099-.332.53999-.72101.533Z" style="fill:#49c0f7; fill-rule:evenodd;"/><path d="m354.255-228.632c-35.70901-1.47699-81.56799,3.905-115.3,28.308-25.701,18.593-37.965,43.274-42.924,70.45201-4.959,27.18399-2.60001,56.8213.901,85.27909.79399,6.4477,1.646,12.8366,2.48399,19.1227,2.85899,21.42942,5.558,41.6642,5.21899,58.9611-.43799,22.3424-5.93999,40.0389-23.047,49.067l-.00099.0006c-9.739,5.118-21.63701,6.5696-35.03201,5.3028-13.38699-1.2661-28.31799-5.2511-44.19399-11.0526C70.612,65.2065,34.9263,46.2782.00784,27.0377c-5.88475-3.2426-11.74754-6.4939-17.56634-9.7208C-46.2938,1.38108-73.9572-13.9602-97.9019-24.7176c-14.3971-6.4679-27.4031-11.2566-38.45309-13.5245-11.065-2.2707-20.02-1.9853-26.468,1.5234l-.00101.001c-6.289,3.4-10.605,9.9129-11.39999,21.1381-.795,11.2251,1.94099,27.0687,9.629,48.9762,15.373,43.8087,50.493,111.7174,116.4164,215.1274.1735.272.0291.601-.3225.73599-.3516.134-.7774.022-.9509-.25-65.934-103.42499-101.10299-171.41109-116.514-215.3252-7.70399-21.954-10.483-37.92869-9.67599-49.3246.80699-11.3954,5.21201-18.3063,12.004-21.9788,6.957-3.7856,16.42799-3.9886,27.647-1.6861,11.23299,2.3054,24.368,7.1518,38.8018,13.6363C-73.1798-14.882-45.4471.49795-16.713,16.4333c5.8146,3.2247,11.67019,6.4721,17.54424,9.7087,34.92926,19.2465,70.51776,38.1181,102.13576,49.6725,15.808,5.7769,30.58399,9.7094,43.76,10.9555,13.16899,1.24551,24.69099-.1961,34.06299-5.12109,16.47-8.6928,21.98801-25.8563,22.425-48.1746.33701-17.2255-2.349-37.36905-5.205-58.7843-.84-6.2969-1.69499-12.7037-2.491-19.1786-3.502-28.4658-5.87799-58.2144-.894-85.5374,4.98599-27.33099,17.345-52.28,43.36099-71.101,34.129-24.69099,80.44299-30.088,116.345-28.603.392.01599.69202.27499.67102.578-.02103.30299-.35501.536-.74701.51999Z" style="fill:#4bbff7; fill-rule:evenodd;"/><path d="m353.56601-229.061c-39.06201-2.386-85.19601,3.106-118.62001,27.41-25.33299,18.41901-37.349,42.836-42.13,69.72-4.782,26.89-2.31599,56.2017,1.26801,84.3624.806,6.3333,1.66901,12.6101,2.519,18.788,2.923,21.26257,5.686,41.3538,5.412,58.5468-.35201,22.1604-5.744,39.7603-22.66699,48.8397l-.00201.00079c-9.629,5.1378-21.407,6.6521-34.67699,5.47961-13.263-1.17181-28.063-5.0305-43.81001-10.68391C69.3689,62.0965,33.935,43.552-.79172,24.6994c-5.52601-3-11.03398-6.0077-16.50558-8.9955C-46.238-.09956-74.162-15.3479-98.3647-25.9646c-14.3893-6.312-27.4163-10.9653-38.52431-13.1287-11.11899-2.1657-20.17499-1.8106-26.765,1.7361l-.002.0013c-6.47299,3.455-11.011,9.9986-12.099,21.2027-1.088,11.2068,1.28801,26.9914,8.532,48.7848,14.48701,43.581,48.39201,111.0414,112.65071,213.66241.1722.27499.0238.60599-.3314.739-.3553.134-.7829.019-.9552-.25601-64.2691-102.63799-98.2251-170.1786-112.7491-213.86959-7.25999-21.8426-9.67799-37.76201-8.57199-49.1435,1.105-11.3841,5.74699-18.3131,12.71199-22.0312,7.089-3.8142,16.64799-4.0966,27.92801-1.8995,11.29299,2.1996,24.452,6.9101,38.8801,13.2391C-73.3895-16.2813-45.3942-.99378-16.4564,14.8083-10.9886,17.7942-5.48716,20.7983.02916,23.7931c34.73864,18.859,70.07354,37.3467,101.43184,48.6051,15.678,5.6288,30.321,9.4354,43.37,10.5883,13.041,1.1523,24.44101-.34911,33.70401-5.29121,16.289-8.74049,21.698-25.8084,22.05099-47.9428.272-17.1207-2.47701-37.12035-5.399-58.3691-.851-6.1886-1.716-12.4832-2.526-18.8435-3.58499-28.1684-6.06799-57.5919-1.261-84.6219,4.808-27.03799,16.918-51.726,42.567-70.37599,33.834-24.60201,80.44099-30.10501,119.71199-27.707.39301.02499.68701.291.65601.59599-.03101.304-.375.532-.76898.508Z" style="fill:#4cbef7; fill-rule:evenodd;"/><path d="m352.88-229.49001c-42.418-3.295-88.827,2.308-121.94301,26.51201-24.96399,18.246-36.733,42.399-41.336,68.987-4.605,26.597-2.033,55.58279,1.63499,83.4464.819,6.2183,1.692,12.3823,2.552,18.4514,2.99001,21.0965,5.817,41.04511,5.60901,58.1349-.26801,21.9787-5.55,39.4819-22.289,48.6127l-.00101.0011c-9.51999,5.1573-21.17599,6.7361-34.31999,5.6605-13.13501-1.075-27.802-4.8039-43.4159-10.30531C68.1462,59.0089,32.9724,40.8574-1.5572,22.3989c-5.19145-2.7752-10.3682-5.5572-15.5151-8.3232C-46.1862-1.57054-74.3433-16.7025-98.7895-27.1692c-14.3835-6.1584-27.4355-10.6807-38.6065-12.7465-11.181-2.0675-20.34601-1.6516-27.089,1.9213-6.64799,3.5221-11.403,10.103-12.78101,21.289-1.37999,11.19092.634,26.915,7.43201,48.5912,13.595,43.3472,46.276,110.3462,108.8689,212.1782.1708.278.0183.61101-.3406.74301-.359.13199-.7885.01399-.9593-.26401-62.604-101.85001-95.33701-168.9324-108.968-212.3942-6.814-21.7283-8.868-37.59083-7.466-48.96,1.401-11.374,6.274-18.3267,13.401-22.1029,7.231-3.8318,16.88701-4.1843,28.23601-2.0856,11.35899,2.1006,24.545,6.6793,38.9692,12.8552C-73.5764-17.6478-45.3468-2.47651-16.2378,13.1673c5.1439,2.7645,10.31532,5.5437,15.49856,8.3145,34.54254,18.4654,69.61565,36.5599,100.70664,47.5146,15.5446,5.4769,30.0526,9.154,42.9716,10.2113,12.91101,1.05659,24.188-.5061,33.34201-5.4654,16.10899-8.7882,21.409-25.7606,21.67599-47.7111.207-17.01695-2.606-36.8737-5.593-57.9569-.862-6.0795-1.73799-12.2611-2.56-18.5059-3.66901-27.8712-6.259-56.9704-1.63-83.70741,4.631-26.74399,16.492-51.17099,41.77501-69.64899,33.54001-24.51401,80.44-30.123,123.07498-26.81001.39603.03001.68402.30301.64401.61-.039.306-.392.52901-.78799.498Z" style="fill:#4ebcf7; fill-rule:evenodd;"/><path d="m352.19699-229.918c-45.77698-4.20599-92.45999,1.509-125.269,25.614-24.59599,18.071-36.11699,41.959-40.543,68.25301-4.427,26.30199-1.74899,54.963,2.00301,82.52969.83,6.1026,1.713,12.1531,2.584,18.1125,3.056,20.9312,5.948,40.7382,5.80499,57.7257-.18199,21.7971-5.353,39.2038-21.90799,48.386l-.002.0012c-9.41101,5.177-20.946,6.819-33.964,5.8381-13.01-.9802-27.547-4.5822-43.0309-9.9349C66.9068,55.9029,31.9861,38.1367-2.35097,20.0671c-4.85545-2.5551-9.69913-5.1163-14.51853-7.6646C-46.1605-3.08546-74.5549-18.0993-99.2458-28.4091c-14.37621-6.0028-27.4502-10.3905-38.67921-12.3529-11.237-1.9638-20.504-1.479-27.39099,2.1296-6.83,3.5789-11.80701,10.1914-13.47801,21.3577-1.672,11.17317-.019,26.83801,6.33501,48.3996,12.70799,43.1185,44.173,109.6661,105.1011,210.71011.1693.28099.0125.61499-.3501.74599-.3627.13101-.7939.01001-.9632-.271-60.93979-101.063-92.4568-167.6978-105.20079-210.9355-6.37001-21.61649-8.061-37.42339-6.362-48.7783,1.7-11.3616,6.80699-18.3335,14.10599-22.1578,7.36501-3.8593,17.11-4.2893,28.522-2.295,11.41901,1.9957,24.62901,6.4391,39.0482,12.4599C-73.7938-19.0564-45.3253-4.00303-16.0414,11.4815c4.8173,2.5472,9.65663,5.1061,14.50519,7.6577,34.35111,18.077,69.16941,35.786,99.99921,46.4436,15.414,5.3283,29.789,8.8788,42.58,9.8426,12.783.9632,23.938-.6595,32.98399-5.6359,15.92801-8.836,21.119-25.713,21.30101-47.4799.142-16.91373-2.73601-36.628-5.79001-57.5461-.87199-5.97-1.758-12.0382-2.592-18.1672-3.752-27.574-6.44901-56.3493-1.998-82.7923,4.453-26.45,16.065-50.616,40.98199-68.922,33.24701-24.42601,80.44-30.14,126.43701-25.914.39801.036.68201.315.63501.623-.048.308-.40802.52699-.80502.491Z" style="fill:#50bbf7; fill-rule:evenodd;"/><path d="m351.51401-230.34801c-49.138-5.116-96.095.71101-128.59601,24.716-24.228,17.89601-35.494,41.52701-39.735,67.535-4.243,26.016-1.448,54.3623,2.394,81.6391.841,5.9714,1.73201,11.8931,2.61101,17.7279,3.12999,20.7884,6.093,40.47303,6.013,57.368-.10201,21.6105-5.17601,38.9076-21.57401,48.1131-9.286,5.2129-20.69,6.9301-33.575,6.0527-12.877-.8769-27.278-4.3466-42.6298-9.5477C65.7219,52.8551,31.0503,35.4701-3.10172,17.7813c-4.54425-2.3536-9.07918-4.7126-13.59458-7.0614-29.4485-15.31836-58.0644-30.2036-82.9907-40.3525-14.373-5.8522-27.47401-10.1097-38.76401-11.9719-11.29599-1.8632-20.666-1.3111-27.696,2.3333-7.013,3.6354-12.213,10.2791-14.17599,21.4263-1.964,11.15546-.673,26.76118,5.239,48.2081,11.821,42.8898,42.06999,108.9858,101.3324,209.2428.1676.283.0065.619-.35979.748-.3664.12999-.7993.00499-.967-.278-59.2746-100.27701-89.57761-166.4633-101.4326-209.477-5.92799-21.50486-7.255-37.2561-5.258-48.5965,1.998-11.3488,7.34-18.34,14.81-22.2123,7.49899-3.8872,17.336-4.3925,28.812-2.4995,11.483,1.8939,24.721,6.2063,39.13921,12.0769C-74.0058-20.4527-45.3145-5.52788-15.8753,9.78597c4.5143,2.34823,9.04609,4.70563,13.58491,7.05653,34.16719,17.6965,68.73449,35.0243,99.29759,45.3788,15.2798,5.1767,29.5168,8.59541,42.1718,9.4572,12.647.8611,23.66901-.833,32.592-5.8419,15.77501-8.8556,20.869-25.6234,20.97101-47.2027.08-16.82041-2.87001-36.4118-5.99701-57.1877-.87999-5.8452-1.774-11.7842-2.61899-17.7816-3.84201-27.2839-6.65601-55.7446-2.39101-81.90261,4.267-26.166,15.625-50.077,40.17599-68.211,32.95201-24.33899,80.43901-30.157,129.79701-25.01799.39899.041.67999.32599.62601.63499-.05402.30901-.42102.526-.82001.48399Z" style="fill:#52baf7; fill-rule:evenodd;"/><path d="m350.83301-230.776c-52.49899-6.02699-99.731-.089-131.923,23.81801-23.862,17.71999-34.879,41.08699-38.942,66.80099-4.064,25.723-1.162,53.74509,2.76399,80.7262.85201,5.8525,1.752,11.6575,2.64,17.3794,3.19801,20.6273,6.23001,40.17433,6.216,56.9699-.017,21.4286-4.98199,38.6276-21.2,47.881-9.175,5.2346-20.45599,7.0164-33.216,6.2348-12.75-.781-27.02-4.1233-42.2417-9.1753C64.4901,49.756,30.0707,32.7555-3.88992,15.4546c-4.22977-2.1549-8.45238-4.3143-12.65948-6.46581-29.6006-15.13783-58.4331-29.88279-83.5926-39.86009-14.366-5.6972-27.489-9.8205-38.838-11.5797-11.353-1.7599-20.82401-1.1383-27.998,2.5419-7.196,3.6915-12.619,10.3663-14.87401,21.4947-2.25699,11.13795-1.325,26.6846,4.142,48.0169,10.93401,42.6611,39.968,108.3065,97.56561,207.7745.1659.286.00031.623-.3698.75101-.3701.129-.8047.00099-.9706-.28601-57.60919-99.489-86.6982-165.22829-97.6662-208.0182-5.483-21.39319-6.44701-37.0887-4.15199-48.4145,2.297-11.3354,7.87199-18.346,15.51399-22.2664,7.632-3.9154,17.55901-4.4976,29.09801-2.709,11.54199,1.7893,24.80499,5.9667,39.21889,11.6827C-74.2342-21.875-45.3248-7.09034-15.7358,8.04189c4.2069,2.15141,8.42754,4.30991,12.65331,6.46271C30.8945,31.8139,65.2078,48.757,95.5091,58.8138c15.1489,5.0279,29.2519,8.3195,41.77889,9.0869,12.517.76669,23.416-.9887,32.22801-6.0166,15.599-8.8999,20.586-25.571,20.603-46.9663.01399-16.72021-3.00301-36.1735-6.19901-56.7888-.88899-5.7323-1.79199-11.5543-2.647-17.4325-3.92799-26.9878-6.84999-55.1255-2.763-80.9915,4.08801-25.873,15.196-49.522,39.38301-67.48401,32.65799-24.25299,80.43799-30.174,133.155-24.12199.40201.04601.67899.33501.61899.646-.05899.311-.43298.52501-.83398.479Z" style="fill:#54b8f7; fill-rule:evenodd;"/><path d="m350.15302-231.205c-55.86102-6.938-103.36902-.88899-135.25201,22.91901-23.495,17.54399-34.265,40.64699-38.149,66.06799-3.886,25.429-.87599,53.1273,3.13499,79.8126.862,5.733,1.77,11.4207,2.666,17.0291,3.26801,20.467,6.36801,39.87709,6.42101,56.5741.06801,21.2469-4.789,38.348-20.826,47.6494-9.06299,5.2561-20.222,7.1025-32.85599,6.4167-12.62401-.6853-26.76201-3.9001-41.8539-8.8031C63.258,46.6558,29.0907,30.0398-4.67863,13.1266c-3.92489-1.9658-7.84437-3.93556-11.75167-5.89924-29.7409-14.94648-58.7801-29.54026-84.1667-39.33846-14.36-5.5422-27.505-9.5314-38.912-11.1875-11.41-1.6565-20.98199-.9652-28.3,2.7509-7.37799,3.7474-13.026,10.4531-15.573,21.563-2.549,11.12061-1.978,26.6083,3.04601,47.8259,10.048,42.4325,37.866,107.6268,93.7986,206.3068.164.289-.0061.627-.38.754-.3739.12701-.81001-.00499-.97401-.29399-55.9446-98.702-83.8196-163.9942-93.89859-206.5603-5.039-21.28171-5.64-36.92144-3.048-48.2324,2.59599-11.3217,8.40399-18.3517,16.218-22.3202,7.76599-3.9439,17.78299-4.6029,29.383-2.9188,11.604,1.6845,24.89,5.7268,39.2997,11.2881C-74.4696-23.3061-45.3524-8.67278-15.6258,6.2668c3.9085,1.96431,7.82762,3.9339,11.75033,5.8986C29.9114,29.0874,63.9708,45.6459,94.0103,55.4052c15.0177,4.8791,28.9877,8.0438,41.3857,8.7168,12.388.6724,23.164-1.1441,31.86501-6.1909,15.422-8.9445,20.302-25.519,20.235-46.7305-.05301-16.62078-3.138-35.9366-6.40401-56.3919-.89699-5.6187-1.808-11.3234-2.67299-17.0818-4.013-26.6917-7.04401-54.5059-3.136-80.0789,3.909-25.58099,14.769-48.96899,38.59099-66.758,32.36401-24.166,80.43802-30.19,136.513-23.22501.40302.05.67801.343.61301.65501-.065.31299-.444.52499-.84698.47499Z" style="fill:#56b7f7; fill-rule:evenodd;"/><path d="m349.474-231.634c-59.22501-7.84799-107.008-1.688-138.58299,22.022-23.12801,17.367-33.65001,40.205-37.356,65.332-3.70801,25.135-.59,52.5099,3.506,78.8996.871,5.613,1.787,11.1828,2.69,16.6771,3.339,20.3071,6.509,39.58112,6.629,56.18028.15199,21.06542-4.595,38.06882-20.452,47.41842-17.89601,10.5521-44.104,7.6546-73.9624-1.8327C62.0253,43.5556,28.1101,27.324-5.468,10.7985c-3.62976-1.78645-7.2556-3.57626-10.8721-5.36149-29.8691-14.74441-59.1048-29.17611-84.7129-38.78791-14.353-5.3872-27.52-9.2422-38.986-10.7951-11.468-1.5531-21.14-.7917-28.60001,2.9601-7.562,3.8031-13.435,10.5395-16.27299,21.6313-2.842,11.10336-2.631,26.53217,1.95,47.6352,9.16101,42.2038,35.76401,106.9474,90.0312,204.83841.1621.293-.0126.63199-.3903.75699-.3777.12601-.8153-.00999-.9774-.302-54.2795-97.91499-80.9405-162.75999-90.13149-205.10249-4.595-21.17015-4.83301-36.75404-1.942-48.05,2.894-11.3075,8.935-18.3571,16.922-22.3737,7.899-3.9726,18.006-4.7083,29.66699-3.1289,11.664,1.5797,24.97501,5.4867,39.37901,10.8933C-74.7117-24.7445-45.3968-10.2734-15.5444,4.46307c3.6189,1.78645,7.24569,3.5768,10.87491,5.36293C28.9274,26.3608,62.7328,42.5348,92.5107,51.9967c29.8403,9.4815,55.3073,12.1163,72.4953,1.982,15.246-8.9891,20.01801-25.4674,19.86501-46.49524-.119-16.52219-3.272-35.70146-6.60901-55.99736-.905-5.5045-1.82399-11.0911-2.69899-16.729-4.097-26.3959-7.23601-53.8871-3.507-79.16711,3.73-25.28799,14.341-48.41499,37.799-66.03,32.069-24.08,80.437-30.20599,139.87001-22.32899.405.05299.677.351.608.66499-.07001.313-.45401.524-.85901.47Z" style="fill:#58b6f7; fill-rule:evenodd;"/><path d="m348.79599-232.062c-62.59-8.761-110.64799-2.489-141.91299,21.123-22.763,17.19-33.036,39.763-36.565,64.597-3.53,24.841-.30399,51.8912,3.87701,77.9853.87999,5.4923,1.80299,10.9436,2.713,16.3229,3.40999,20.1481,6.64999,39.2869,6.838,55.78921.237,20.88419-4.401,37.78989-20.077,47.18779-17.67401,10.5954-43.616,7.9111-73.21531-1.2792C60.7933,40.4547,27.1299,24.6074-6.25691,8.46955c-3.34397-1.61634-6.68509-3.23558-10.01929-4.85143-29.9859-14.53222-59.4083-28.79122-85.2318-38.20962-14.34599-5.2321-27.536-8.953-39.061-10.4025-11.52499-1.4497-21.298-.6179-28.901,3.1698-7.745,3.8585-13.842,10.6252-16.97299,21.6994-3.134,11.08619-3.283,26.45625.855,47.4446,8.27499,41.9753,33.66299,106.2682,86.26469,203.37119.16.295-.0196.63501-.4011.759-.3816.12401-.82059-.015-.9806-.31099-52.61501-97.12701-78.061-161.52531-86.364-203.64421-4.15199-21.05879-4.026-36.58676-.83701-47.8676,3.192-11.2929,9.46701-18.3622,17.62601-22.4268,8.032-4.0016,18.229-4.8139,29.952-3.3393,11.72301,1.4746,25.05801,5.2463,39.458,10.4982C-74.9595-26.1909-45.4567-11.8925-15.4902,2.63057c3.3379,1.6177,6.6816,3.23821,10.02672,4.85509C27.9434,23.6332,61.4951,39.4229,91.0113,48.5874c29.5777,9.1835,54.7737,11.6101,71.73971,1.4387,15.06999-9.0338,19.73399-25.4161,19.49599-46.26045-.18599-16.42455-3.409-35.46815-6.817-55.60555-.91299-5.3894-1.838-10.8571-2.722-16.374-4.18199-26.0999-7.42999-53.2681-3.879-78.2551,3.55101-24.99501,13.914-47.86,37.00801-65.30101,31.77399-23.996,80.436-30.222,143.22501-21.43399.40698.05699.67798.35899.60397.674-.073.315-.46298.52499-.87.468Z" style="fill:#59b4f7; fill-rule:evenodd;"/><path d="m348.11801-232.491c-65.95401-9.672-114.28801-3.29001-145.24402,20.224-22.39699,17.013-32.42299,39.321-35.77399,63.86-3.35301,24.547-.01901,51.2741,4.248,77.0727.88799,5.3708,1.81699,10.7028,2.73399,15.9664,3.48199,19.9899,6.793,38.9944,7.049,55.40086.323,20.70304-4.20599,37.51134-19.702,46.95774-17.451,10.6383-43.127,8.1673-72.4676-.7262C59.5608,37.3529,26.1492,21.89-7.04639,6.13976c-3.06801-1.45565-6.13411-2.91375-9.19511-4.36942-30.0906-14.30964-59.6893-28.38534-85.7225-37.60314-14.339-5.0771-27.55201-8.6637-39.135-10.0099-11.582-1.3462-21.45599-.4437-29.201,3.3797-15.84399,7.8213-25.314,27.2181-17.91499,69.0218,7.38899,41.7467,31.562,105.5882,82.49899,201.90321.158.299-.02699.63899-.41199.76199-.386.12199-.826-.021-.984-.319-50.95-96.341-75.18201-160.2923-82.597-202.1877-7.405-41.8385,1.923-61.933,18.59801-70.1646,8.16499-4.0308,18.45299-4.9195,30.23599-3.5499,11.784,1.3695,25.143,5.0057,39.538,10.1027C-75.2141-27.645-45.5335-13.53-15.4645.76964c3.0657,1.45797,6.13558,2.91788,9.20607,4.37473,33.21703,15.76033,66.51483,31.16563,95.76963,40.03303,29.3148,8.8856,54.23981,11.1042,70.9848.896,14.89301-9.0789,19.44901-25.3653,19.127-46.02633-.255-16.32777-3.549-35.23656-7.02901-55.21617-.918-5.2737-1.84999-10.6219-2.74199-16.0169-4.267-25.8041-7.62401-52.649-4.252-77.34301,3.373-24.70299,13.487-47.30499,36.21799-64.571,31.479-23.911,80.435-30.23799,146.58099-20.53799.40903.06.67801.36501.60001.68201-.077.31699-.47198.52499-.88098.465Z" style="fill:#5bb3f7; fill-rule:evenodd;"/><path d="m347.44199-232.92c-69.31998-10.584-117.92899-4.092-148.57698,19.326-22.03201,16.83499-31.81001,38.877-34.98401,63.12199-3.174,24.253.26801,50.6559,4.619,76.1591.895,5.24889,1.83,10.461,2.75301,15.6084,3.55499,19.8321,6.93799,38.7029,7.263,55.01441.409,20.52219-4.011,37.23319-19.326,46.72809-17.228,10.6812-42.638,8.4233-71.72041-.1733C58.3287,34.2507,25.1688,19.172-7.83562,3.80941-10.6373,2.5053-13.4379,1.19915-16.2348-.10531c-30.1836-14.07719-59.9481-27.95889-86.1852-36.96939-14.332-4.9219-27.567-8.3743-39.209-9.6171-11.64-1.2427-21.61301-.2692-29.50101,3.5901-16.207,7.9294-26.222,27.3317-19.71199,68.8996,6.50299,41.5182,29.46199,104.9091,78.73299,200.43609.156.30101-.034.64301-.423.763-.389.121-.831-.026-.986-.327-49.286-95.554-72.303-159.0587-78.83001-200.7307-6.51999-41.6222,3.382-61.7047,20.40701-70.0343,8.29799-4.0601,18.67599-5.0252,30.51999-3.7608,11.843,1.2644,25.22601,4.765,39.617,9.7071C-75.4753-29.1066-45.6275-15.1857-15.4682-1.11955-12.6652.18778-9.85943,1.49637-7.05358,2.8024c33.02718,15.3731,66.07128,30.3942,95.06458,38.9646,29.052,8.5877,53.70599,10.5987,70.231.3538,14.71599-9.1241,19.164-25.3149,18.75699-45.79278-.323-16.23192-3.689-35.00642-7.24199-54.82882-.925-5.1573-1.862-10.3854-2.76201-15.6582-4.35199-25.5084-7.81799-52.03001-4.62399-76.431,3.19499-24.409,13.061-46.74901,35.42799-63.84,31.18401-23.828,80.43501-30.25401,149.93599-19.64301.41101.063.67902.37199.59802.69-.08099.319-.48001.526-.89102.463Z" style="fill:#5db2f7; fill-rule:evenodd;"/><path d="m346.76401-233.34801c-72.686-11.49599-121.57001-4.894-151.908,18.427-21.668,16.65601-31.19901,38.433-34.19501,62.38301-2.99699,23.959.55301,50.03799,4.989,75.2457.903,5.1264,1.84201,10.21799,2.77,15.2483,3.629,19.675,7.086,38.4132,7.48,54.6306.494,20.3415-3.81599,36.9554-18.95,46.499-17.00499,10.7238-42.14899,8.6791-70.9733.3792C57.0954,31.1483,24.1871,16.4538-8.62617,1.47886c-2.54443-1.1612-5.08823-2.3241-7.62973-3.48586-30.2653-13.8353-60.186-27.513-86.6211-36.3096-14.325-4.7669-27.582-8.0849-39.283-9.2243-11.698-1.1392-21.771-.0943-29.80099,3.8008-16.57001,8.0372-27.132,27.4451-21.509,68.7776,5.617,41.2897,27.362,104.2305,74.968,198.9685.153.304-.042.647-.435.765-.39301.119-.83601-.032-.98901-.336-47.62-94.767-69.424-157.8251-75.063-199.2737-5.633-41.4058,4.843-61.4762,22.217-69.9035,8.431-4.0899,18.899-5.1313,30.80301-3.972,11.903,1.1591,25.31,4.5241,39.69499,9.3111C-75.7441-30.575-45.7394-16.8586-15.5012-3.03539-12.952-1.87003-10.4011-.7039-7.85049.46012,24.9869,15.4461,57.7773,30.083,86.5092,38.3564c28.7898,8.29,53.17281,10.0937,69.47679-.1877,14.54001-9.1694,18.88-25.265,18.38701-45.55985-.392-16.13705-3.83099-34.77855-7.45801-54.44455-.92999-5.04-1.87199-10.1473-2.778-15.2969-4.43799-25.2124-8.01199-51.41141-4.99699-75.51939,3.017-24.11501,12.634-46.192,34.64-63.108,30.88701-23.744,80.43399-30.27,153.29001-18.74701.41299.065.67999.37801.59598.698-.08499.32001-.48798.526-.90198.461Z" style="fill:#5fb0f7; fill-rule:evenodd;"/><path d="m346.08801-233.77699c-76.052-12.408-125.21301-5.69601-155.24101,17.52899-21.30299,16.47701-30.588,37.98801-33.407,61.64301-2.819,23.664.839,49.419,5.36099,74.3322.908,5.003,1.851,9.9733,2.783,14.8858,3.705,19.5188,7.23601,38.1251,7.7,54.2495.58,20.16106-3.621,36.678-18.573,46.2704-16.782,10.7663-41.661,8.9348-70.2265.9315C55.8626,28.0453,23.2058,13.735-9.41624-.85233c-2.29696-1.02712-4.59376-2.0556-6.88896-3.08341-30.3353-13.58386-60.4016-27.04726-87.0278-35.62346-14.318-4.6116-27.598-7.7954-39.357-8.8312-11.757-1.0356-21.92999.0808-30.10201,4.0117-16.933,8.145-28.04099,27.5584-23.30499,68.6558,4.731,41.0613,25.261,103.5519,71.202,197.5009.14999.308-.05.651-.44701.767-.397.117-.84-.03799-.991-.34599-45.95499-93.98001-66.54501-156.5909-71.296-197.81621-4.746-41.1892,6.30299-61.2474,24.026-69.7724,8.565-4.1197,19.12199-5.2372,31.08699-4.1833,11.96201,1.0537,25.39301,4.283,39.77301,8.9149C-76.0189-32.0505-45.8675-18.5486-15.5619-4.97778c2.3044,1.03193,4.6098,2.06426,6.91452,3.09485C24.0002,12.7158,56.537,26.9686,85.0076,34.9453c28.5264,7.9923,52.6394,9.589,68.7224-.7288,14.364-9.215,18.59601-25.21542,18.017-45.3275-.461-16.0432-3.974-34.5525-7.67599-54.063-.93401-4.9219-1.88-9.90739-2.793-14.9332-4.52299-24.9168-8.20599-50.79279-5.369-74.6068,2.839-23.82199,12.20801-45.636,33.85201-62.37599,30.591-23.66101,80.43401-30.285,156.644-17.85201.41602.06801.681.384.59399.705-.08798.32201-.495.528-.91098.46001Z" style="fill:#61aff7; fill-rule:evenodd;"/><path d="m345.41299-234.205c-79.41901-13.321-128.85599-6.49899-158.57399,16.63-20.94,16.297-29.979,37.541-32.62001,60.90199-2.642,23.369,1.12401,48.801,5.73201,73.4186.91299,4.8791,1.85899,9.7274,2.795,14.5212,3.78099,19.3633,7.388,37.8387,7.922,53.8712.666,19.98078-3.425,36.401-18.196,46.0423-16.55901,10.8085-41.171,9.1902-69.4792,1.4834C54.6304,24.9421,22.225,11.0158-10.2059-3.1839c-2.0592-.90161-4.1185-1.80432-6.1769-2.70665-30.3936-13.32325-60.5948-26.56215-87.4062-34.91145-14.311-4.4565-27.614-7.5059-39.431-8.4381-11.815-.932-22.088.2562-30.40199,4.223-17.29701,8.2524-28.95201,27.6713-25.10301,68.5341,3.84601,40.8329,23.162,102.873,67.438,196.03399.147.31-.058.65401-.459.76901-.401.114-.84599-.04501-.993-.356-44.291-93.193-63.66701-155.358-67.52901-196.36-3.85899-40.9722,7.76201-61.0184,25.83501-69.6408,8.69701-4.1497,19.345-5.3434,31.369-4.3949,12.02199.9483,25.476,4.0418,39.852,8.5185C-76.3001-33.5327-46.0122-20.2555-15.6508-6.94605c2.0689.90691,4.138,1.81396,6.20647,2.71963C23.0135,9.98509,55.2966,23.8539,83.506,31.5338c28.264,7.6949,52.106,9.0848,67.96901-1.2692,14.18799-9.2607,18.31099-25.16631,17.64699-45.0957-.532-15.9503-4.11899-34.3282-7.89799-53.6838-.938-4.8031-1.88699-9.6664-2.804-14.5677-4.60899-24.6214-8.401-50.1744-5.742-73.69439,2.66-23.52901,11.78201-45.08,33.06401-61.64301,30.295-23.578,80.43399-30.30099,159.99799-16.95601.418.07001.68301.38901.59302.71201-.091.323-.50302.52901-.92001.459Z" style="fill:#63adf6; fill-rule:evenodd;"/><path d="m344.737-234.634c-82.78601-14.233-132.5-7.30299-161.907,15.731-20.577,16.117-29.369,37.095-31.83301,60.161-2.465,23.07401,1.408,48.18201,6.10201,72.50461.91701,4.7543,1.866,9.4798,2.80501,14.1541,3.85699,19.2085,7.54199,37.5541,8.14699,53.4957.752,19.80071-3.22899,36.1243-17.81799,45.8148-16.336,10.8504-40.683,9.4453-68.7328,2.035C53.3971,21.8378,21.2431,8.29566-10.9967-5.51645c-1.8304-.78419-3.6611-1.56927-5.4914-2.35416-30.4409-13.05389-60.7672-26.05879-87.7579-34.17519-14.304-4.3012-27.629-7.2163-39.506-8.0448-11.873-.8283-22.244.432-30.701,4.4346-17.661,8.3596-29.86299,27.784-26.901,68.4124,2.961,40.6047,21.063,102.1946,63.673,194.5666.145.313-.06599.658-.47099.77-.40501.112-.85001-.05099-.99501-.36501-42.62599-92.406-60.78799-154.1249-63.761-194.9036-2.972-40.755,9.222-60.7891,27.64301-69.5087,8.83099-4.18,19.56999-5.4497,31.653-4.6067,12.08.8427,25.559,3.8003,39.929,8.1217C-76.5888-35.0219-46.1748-21.9792-15.7685-8.93986c1.8421.78999,3.6843,1.57997,5.5256,2.36885C22.0253,7.25328,54.0548,20.7381,82.0029,28.1215c28.0011,7.3974,51.5731,8.5809,67.21609-1.8091,14.01201-9.3066,18.026-25.11771,17.276-44.8646-.60199-15.8587-4.267-34.1064-8.12199-53.308-.94099-4.6832-1.892-9.4233-2.814-14.1992-4.694-24.3266-8.595-49.5556-6.114-72.78259,2.48199-23.23401,11.35699-44.522,32.278-60.908,29.99699-23.49699,80.433-30.317,163.351-16.061.41998.07201.685.394.591.71901-.09302.325-.509.53-.92801.45799Z" style="fill:#64acf6; fill-rule:evenodd;"/><path d="m344.06201-235.062c-86.15302-15.146-136.14301-8.10701-165.24001,14.832-20.21501,15.93599-28.761,36.647-31.048,59.418-2.28801,22.77899,1.694,47.563,6.47299,71.591.92101,4.629,1.871,9.231,2.81201,13.7852,3.935,19.0543,7.698,37.2708,8.37599,53.1226.838,19.62096-3.033,35.8481-17.44099,45.5878-16.112,10.8922-40.193,9.7003-67.9855,2.5863C52.1647,18.7338,20.262,5.57573-11.7866-7.8488c-1.6117-.67515-3.2239-1.35098-4.8359-2.02676-30.4763-12.77574-60.9166-25.53634-88.0795-33.41374-14.297-4.146-27.645-6.9267-39.57999-7.6514-11.93201-.7246-22.403.608-31,4.6464-18.026,8.4666-30.776,27.8965-28.7,68.2911,2.07599,40.3765,18.96399,101.5152,59.909,193.09919.142.317-.075.662-.48401.772-.409.10901-.855-.05899-.99599-.375-40.96101-91.62-57.90901-152.8925-59.994-193.448-2.084-40.5374,10.681-60.5594,29.452-69.3762,8.964-4.2104,19.793-5.556,31.935-4.8186,12.14.7371,25.64101,3.5586,40.007,7.7248,27.2689,7.908,57.7979,20.706,88.237,33.4664,1.6254.6814,3.2505,1.36268,4.8749,2.04311C21.0374,4.52155,52.8133,17.6225,80.5003,24.7094c27.7387,7.1002,51.0407,8.0775,66.46371-2.3484,13.836-9.3528,17.741-25.06952,16.905-44.6341-.674-15.7678-4.416-33.8861-8.35001-52.9342-.942-4.56281-1.896-9.1791-2.81999-13.8291-4.78-24.0306-8.79001-48.9376-6.487-71.86961,2.304-22.94099,10.93199-43.965,31.49199-60.174,29.70001-23.41499,80.433-30.33099,166.705-15.16499.422.07399.686.399.59.726-.09598.326-.51498.53099-.93698.457Z" style="fill:#66abf6; fill-rule:evenodd;"/><path d="m343.38699-235.491c-89.521-16.058-139.78799-8.911-168.57399,13.93399-19.85201,15.755-28.153,36.19701-30.263,58.673-2.11101,22.485,1.979,46.945,6.84399,70.6778.923,4.5028,1.87401,8.9804,2.815,13.4133,4.01601,18.9011,7.858,36.9898,8.608,52.753.925,19.44134-2.83501,35.57226-17.061,45.3613-15.89,10.9337-39.70499,9.955-67.23949,3.1374C50.9319,15.6289,19.2804,2.85478-12.577-10.1821c-1.4025-.574-2.8055-1.1485-4.2085-1.723-30.5005-12.4891-61.0442-24.996-88.3735-32.6286-28.63701-7.998-53.455-10.5569-70.95401-2.3994-18.39,8.5734-31.689,28.0086-30.49799,68.1698,1.19099,40.1484,16.866,100.8373,56.14499,191.6323.13901.31999-.084.666-.49699.77299-.412.10699-.85901-.06599-.99701-.38499-39.297-90.833-55.03-151.6599-56.226-191.9922-1.196-40.3194,12.14-60.3296,31.26001-69.2433,18.17499-8.473,43.63899-5.7082,72.30199,2.2969,27.4372,7.6627,58.0709,20.2066,88.5318,32.6798,1.4178.5806,2.8352,1.161,4.2519,1.7407C20.0485,1.78873,51.5708,14.5058,78.9967,21.2964c27.4753,6.803,50.50831,7.5744,65.7113-2.8872,13.66-9.39906,17.45601-25.02177,16.53401-44.4042-.746-15.6781-4.567-33.6678-8.58101-52.5632-.94299-4.4416-1.89699-8.9333-2.82399-13.4567-4.86601-23.7361-8.985-48.3191-6.86-70.9571,2.127-22.647,10.50699-43.40601,30.70799-59.438,29.40201-23.334,80.43201-30.347,170.05801-14.26999.42398.077.68799.40399.59.73299-.09802.328-.522.53201-.94601.45601Z" style="fill:#68a9f6; fill-rule:evenodd;"/><path d="m342.71201-235.91901c-92.888-16.972-143.433-9.71799-171.908,13.03401-19.49001,15.573-27.54601,35.748-29.48,57.92799-1.93401,22.19,2.26399,46.326,7.215,69.7641.924,4.3761,1.875,8.7288,2.817,13.0398,4.09599,18.7483,8.019,36.7099,8.843,52.3855,1.011,19.262-2.638,35.29682-16.683,45.1354-15.66601,10.975-39.214,10.2095-66.49181,3.6882C49.6986,12.5231,18.2984.13308-13.3679-12.5163c-1.2028-.4805-2.4061-.9613-3.6095-1.4423-30.5133-12.1944-61.15-24.4381-88.6386-31.8202-28.619-7.6857-53.548-10.0216-71.327-1.7934-18.755,8.6799-32.60301,28.1204-32.29701,68.0487.306,39.9203,14.767,100.1595,52.38101,190.1655.13499.323-.093.66901-.51001.77299-.41699.10501-.864-.07199-.99899-.39499-37.631-90.04601-52.151-150.4271-52.45801-190.5362-.30699-40.101,13.599-60.0993,33.069-69.1099,18.44301-8.5355,44.004-6.0087,72.661,1.6872,27.5985,7.4116,58.3257,19.6917,88.7967,31.8694,1.22.4876,2.4397.975,3.6587,1.462C19.0586-.94502,50.3273,11.3882,77.4922,17.8827c27.2128,6.5059,49.9758,7.0717,64.95979-3.4255,13.483-9.44556,17.17-24.9745,16.162-44.1749-.819-15.5898-4.72099-33.4521-8.815-52.1957-.94299-4.3193-1.897-8.6854-2.825-13.0813-4.952-23.4403-9.17999-47.70031-7.23199-70.0443,1.948-22.353,10.082-42.84799,29.92299-58.701,29.104-23.254,80.43201-30.362,173.411-13.375.427.078.69101.40901.59.739-.10098.33-.52798.53401-.95398.457Z" style="fill:#6aa8f6; fill-rule:evenodd;"/><path d="m342.03699-236.34801c-96.25598-17.88399-147.07698-10.52299-175.24098,12.136-19.13,15.39-26.94101,35.29701-28.698,57.18201-1.757,21.894,2.549,45.706,7.586,68.8499.924,4.2484,1.87399,8.4752,2.81499,12.6635,4.177,18.59641,8.18401,36.4319,9.08101,52.0213,1.099,19.0828-2.44,35.02181-16.302,44.91-15.443,11.016-38.726,10.4638-65.7458,4.2387C48.4658,9.41755,17.3166-2.58848-14.1585-14.8503c-1.013-.3946-2.0264-.7895-3.0399-1.1845-30.5148-11.8918-61.2335-23.8629-88.8736-30.9889-28.60101-7.3735-53.641-9.486-71.701-1.1869-19.12001,8.7861-33.51801,28.2318-34.09601,67.9277-.57899,39.6923,12.668,99.4809,48.618,188.6989.13101.326-.10399.672-.52399.774-.42101.101-.86801-.08-1-.40601-35.966-89.25999-49.272-149.1949-48.69-189.0808.58099-39.8824,15.058-59.8689,34.877-68.9763,18.711-8.5981,44.369-6.3092,73.02,1.0772,27.7529,7.155,58.5631,19.162,89.0334,31.0365,1.0316.4021,2.0628.8039,3.0935,1.2055C18.0684-3.67871,49.0836,8.27083,75.9874,14.4692c26.9496,6.2089,49.4436,6.5695,64.2086-3.9632,13.30701-9.49228,16.88499-24.9277,15.78999-43.9463-.89299-15.5025-4.87599-33.2383-9.05199-51.831-.94301-4.1961-1.895-8.4359-2.82401-12.7035-5.037-23.1452-9.375-47.08221-7.605-69.13219,1.771-22.058,9.659-42.28801,29.14099-57.96201,28.80501-23.175,80.43201-30.37801,176.76401-12.48.42801.08.69199.41299.59.745-.103.332-.534.536-.96301.45599Z" style="fill:#6ca7f6; fill-rule:evenodd;"/><path d="m341.36301-236.776c-99.62401-18.797-150.724-11.32899-178.57501,11.23601-18.76999,15.207-26.33699,34.84599-27.91699,56.435-1.58101,21.59799,2.83299,45.087,7.95599,67.937.92401,4.1195,1.871,8.2195,2.81,12.2839,4.26001,18.4454,8.35101,36.1561,9.32401,51.6605,1.186,18.904-2.243,34.74725-15.922,44.68519-15.22,11.05681-38.236,10.71791-64.999,4.78891C47.2325,6.31166,16.3345-5.31037-14.9494-17.1846c-.8332-.3163-1.6668-.6327-2.5005-.9492-30.5047-11.5813-61.2939-23.2705-89.0791-30.135-28.583-7.0615-53.734-8.9501-72.074-.5802-19.48601,8.8922-34.433,28.343-35.896,67.8069-1.464,39.4644,10.571,98.8031,44.855,187.2321.127.32899-.11301.675-.53801.774-.42499.099-.87199-.088-1-.41701-34.30099-88.473-46.39299-147.9621-44.922-187.6248,1.47-39.6632,16.517-59.638,36.685-68.8421,18.979-8.661,44.73401-6.6098,73.37801.4668,27.9004,6.893,58.7824,18.6176,89.2405,30.1813.853.3238,1.7057.6476,2.5579.971C17.0774-6.41285,47.839,5.15301,74.4818,11.0553c26.6872,5.9122,48.9122,6.0678,63.45821-4.50019,13.131-9.53925,16.599-24.88141,15.41699-43.71841-.967-15.4164-5.034-33.0268-9.29399-51.4691-.94-4.0722-1.89-8.1849-2.81801-12.3236-5.123-22.85-9.56999-46.464-7.97699-68.219,1.59299-21.76399,9.235-41.729,28.35899-57.22299,28.505-23.09601,80.431-30.394,180.11601-11.58501.431.08101.69498.41701.59.75101-.10501.33299-.539.53799-.97.45599Z" style="fill:#6ea5f6; fill-rule:evenodd;"/><path d="m340.689-237.20399c-102.993-19.71101-154.37-12.138-181.90999,10.336-18.40901,15.02299-25.73201,34.39299-27.136,55.687-1.405,21.302,3.11699,44.467,8.327,67.022.922,3.991,1.86501,7.96339,2.80099,11.903,4.345,18.2952,8.522,35.8819,9.571,51.3025,1.27301,18.7254-2.04399,34.47314-15.541,44.46101-14.99599,11.09729-37.74619,10.97169-64.25269,5.3388C45.9998,3.2044,15.3527-8.03362-15.7399-19.5203l-1.9903-.7353c-30.4834-11.2634-61.3324-22.6618-89.2558-29.2596-28.56499-6.7496-53.826-8.4139-72.447.0269-19.851,8.998-35.349,28.4538-37.696,67.6863-2.34801,39.2366,8.47299,98.126,41.093,185.766.123.332-.12401.67799-.55301.774-.429.09499-.87599-.09601-1-.42801-32.636-87.687-43.51399-146.7304-41.15399-186.1699,2.36-39.4437,17.97499-59.407,38.493-68.7076,19.24699-8.7242,45.099-6.9105,73.736-.1439,28.0404,6.6256,58.9833,18.0589,89.418,29.3043.6842.2528,1.3681.5056,2.0518.7581C16.0861-9.14842,46.5941,2.03381,72.9759,7.64026c26.4241,5.61544,48.3801,5.56634,62.70811-5.03685,12.955-9.58637,16.31299-24.83551,15.04399-43.49111-1.04199-15.3317-5.19499-32.8178-9.539-51.1108-.937-3.94711-1.884-7.9316-2.80899-11.94051-5.21001-22.555-9.76601-45.846-8.351-67.30599,1.416-21.46901,8.812-41.16901,27.57799-56.48401,28.20601-23.017,80.43201-30.40799,183.46899-10.689.43301.082.698.42101.591.757-.10699.33499-.54498.53999-.978.457Z" style="fill:#70a4f6; fill-rule:evenodd;"/><path d="m340.01501-237.633c-106.36002-20.62302-158.01701-12.94501-185.24301,9.437-18.05,14.839-25.13,33.939-26.358,54.937-1.229,21.007,3.40199,43.84801,8.698,66.109.918,3.86,1.85699,7.70461,2.78799,11.5186,4.43201,18.1455,8.696,35.6094,9.82201,50.9476,1.36099,18.547-1.845,34.1995-15.159,44.23739-14.773,11.13751-37.2563,11.22531-63.506,5.88844C44.7672.09703,14.3712-10.757-16.5303-21.8561l-1.5111-.5428c-30.4504-10.9381-61.3475-22.0367-89.4006-28.3629-28.547-6.4376-53.91899-7.8773-72.821.6345-20.216,9.1036-36.265,28.5643-39.496,67.5657-3.23199,39.009,6.37601,97.4486,37.33,184.29961.12.33499-.134.681-.567.77399-.43199.09201-.88-.105-.99899-.43999-30.972-86.90001-40.63501-145.49791-37.386-184.71411,3.24899-39.2237,19.433-59.1756,40.30099-68.5728,19.51401-8.7874,45.463-7.2111,74.093-.7549,28.1725,6.3533,59.1647,17.4861,89.5647,28.4063l1.576.5661C15.0944-11.8843,45.3488-1.0856,71.4698,4.22509c26.161,5.31883,47.8482,5.06534,61.9592-5.57291,12.778-9.63378,16.026-24.79018,14.67-43.26458-1.119-15.248-5.358-32.6109-9.789-50.7552-.933-3.8211-1.87399-7.6764-2.797-11.5544-5.29601-22.261-9.961-45.229-8.723-66.394,1.23901-21.17401,8.389-40.608,26.799-55.742,27.90399-22.94,80.431-30.424,186.821-9.795.435.084.69998.42599.591.763-.10901.33699-.55002.54199-.98599.457Z" style="fill:#71a3f6; fill-rule:evenodd;"/><path d="m339.341-238.06c-109.729-21.53699-161.664-13.754-188.577,8.537-17.692,14.65399-24.52801,33.48399-25.58101,54.18599-1.053,20.711,3.686,43.22801,9.069,65.19501.914,3.73,1.847,7.445,2.77299,11.1323,4.51801,17.9966,8.873,35.3387,10.076,50.5958,1.44901,18.3688-1.645,33.9262-14.77699,44.01422-14.549,11.17746-36.7656,11.47867-62.7588,6.43783C43.5342-3.01001,13.3891-13.4801-17.321-24.1916l-1.0612-.3701c-30.4066-10.6062-61.3408-21.3963-89.5168-27.4461-28.52899-6.1259-54.011-7.3406-73.194,1.2424-20.58099,9.2089-37.18199,28.6743-41.297,67.4453-4.116,38.7814,4.28,96.7711,33.569,182.8331.11501.338-.146.68401-.582.77299-.437.089-.884-.11299-.99899-.45099-29.30701-86.11301-37.75601-144.26601-33.61801-183.25881,4.14-39.0033,20.89101-58.9439,42.10901-68.4376,19.78099-8.8509,45.827-7.5119,74.449-1.3662,28.2977,6.0759,59.3276,16.8996,89.6818,27.4876l1.1308.3944C14.1016-14.6199,44.1024-4.20472,69.9625.81032c25.89799,5.02234,47.3175,4.56475,61.2105-6.10847,12.601-9.68125,15.739-24.74525,14.29599-43.03865-1.196-15.166-5.52399-32.4068-10.043-50.4035-.927-3.6937-1.86299-7.4197-2.78-11.1657-5.383-21.966-10.157-44.611-9.09599-65.481,1.061-20.87901,7.966-40.04701,26.019-55,27.604-22.86301,80.431-30.44,190.17401-8.90001.43799.08501.703.43001.59198.769-.11099.33801-.556.543-.99399.45801Z" style="fill:#73a1f6; fill-rule:evenodd;"/><path d="m338.66699-238.489c-113.09799-22.45-165.312-14.563-191.91199,7.638-17.334,14.468-23.927,33.028-24.80401,53.43399-.877,20.414,3.97,42.608,9.439,64.28101.908,3.598,1.834,7.183,2.75301,10.743,4.608,17.84859,9.054,35.0699,10.336,50.2473,1.537,18.1908-1.446,33.6534-14.394,43.79171C115.76,2.86316,93.8096,3.37775,68.0728-1.36706,42.3004-6.11845,12.4063-16.2045-18.1127-26.5284l-.6428-.2175c-30.3512-10.2674-61.3107-20.7406-89.6005-26.5093-28.513-5.8142-54.105-6.8035-73.56799,1.8506-20.94701,9.3141-38.10001,28.784-43.09801,67.325-5,38.554,2.18401,96.0946,29.80701,181.36759.11099.341-.157.686-.597.772-.44101.086-.88701-.12199-.998-.463-27.64101-85.327-34.87601-143.0343-29.84801-181.8038,5.02901-38.7824,22.34801-58.7119,43.91501-68.302,20.049-8.9147,46.192-7.8127,74.806-1.9778,28.4135,5.794,59.4697,16.2999,89.7668,26.5491l.7161.2423C13.1072-17.3569,42.8545-7.32525,68.4538-2.60578c25.6349,4.72604,46.7862,4.06459,60.4622-6.64348,12.425-9.72904,15.452-24.70084,13.922-42.81334-1.27499-15.0851-5.694-32.2047-10.302-50.0544-.92-3.566-1.84799-7.161-2.75999-10.775-5.469-21.67101-10.353-43.993-9.469-64.56801.885-20.584,7.545-39.48599,25.242-54.25699,27.30101-22.787,80.431-30.455,193.52602-8.005.44.08701.70499.43401.59299.774-.11301.341-.561.54601-1.00101.459Z" style="fill:#75a0f6; fill-rule:evenodd;"/></g></svg>