<svg width="390" height="308" viewBox="0 0 390 308" fill="none" xmlns="http://www.w3.org/2000/svg">
<path d="M314.798 159.406C314.731 157.846 314.883 156.238 314.507 154.697C314.419 152.101 314.165 149.521 313.749 146.958C313.187 144.615 313.14 142.219 312.446 139.93C310.963 135.096 310.015 130.068 307.841 125.484C306.423 121.29 304.429 117.332 302.408 113.405C300.068 108.832 297.411 104.448 294.435 100.256C292.918 97.5514 291.046 95.0699 289.323 92.497C286.341 87.5373 283.348 82.5439 281.036 77.2389C279.529 74.7202 278.761 71.8527 277.308 69.3069C273.737 61.3478 269.874 53.5105 265.571 45.8798C263.8 43.185 262.331 40.3176 260.52 37.6498C257.785 33.672 255.134 29.579 251.857 26.0006C250.719 24.5415 249.639 23.0215 248.187 21.8501C244.487 18.0584 240.475 14.6256 236.155 11.5517C232.211 9.18188 228.308 6.67328 224.002 4.9975C219.898 3.33526 215.67 2.0962 211.32 1.27693C207.758 0.237606 204.017 0.335783 200.365 0.105575C198.018 -0.324373 195.672 0.27146 193.326 0.298544C190.137 0.386565 187.04 1.14828 183.898 1.61886C180.137 2.48214 176.521 3.84307 172.875 5.07537C164.269 8.65714 156.171 13.8639 150.186 21.085C147.901 23.5767 145.957 26.3087 144.353 29.2845C142.789 32.3821 141.11 35.4764 140.196 38.8449C139.718 40.2702 139.021 41.6209 138.757 43.1173C136.732 51.0019 136.769 59.2657 137.741 67.2959C138.347 69.7165 138.394 72.259 139.271 74.6186C140.121 77.6113 141.116 80.5532 142.261 83.4444C144.928 89.8597 147.928 96.2379 152.356 101.651C153.006 98.2894 151.574 95.0801 150.646 91.9215C149.793 88.6511 148.473 85.5027 147.907 82.1613C147.677 81.4199 148.277 80.4314 147.417 79.9506H147.806C149.16 82.0564 150.633 84.0707 152.224 86.0038C153.886 88.228 155.816 90.1983 158.006 91.9113C157.695 93.4212 156.635 94.6433 156.391 96.1769C155.999 98.3301 155.217 100.371 154.512 102.426C153.808 104.478 152.762 106.425 152.948 108.622C153.043 109.512 153.29 110.358 153.697 111.157C154.099 111.956 154.634 112.657 155.294 113.263C156.198 112.82 157.112 112.396 158.033 111.96C159.029 112.464 159.987 113.03 160.911 113.652C163.443 115.426 166.179 116.909 168.545 118.91C170.109 120.22 171.748 121.419 173.186 122.864C175.966 125.721 177.689 129.503 180.871 131.974C183.204 134.09 186.647 135.59 189.778 134.483C191.86 134.033 193.783 133.078 195.645 132.1C198.042 130.37 200.07 128.193 202.294 126.243C203.222 129.286 203.696 132.398 203.719 135.58C203.743 138.762 203.31 141.88 202.426 144.937C199.748 153.015 193.909 159.538 187.815 165.28C182.232 170.111 176.291 174.451 169.987 178.3C169.385 178.737 168.423 178.636 168.03 179.313C168.098 180.24 168.836 180.978 169.388 181.693C172.09 184.601 175.211 187.109 177.679 190.231C181.332 188.67 184.433 186.121 187.666 183.859C194.704 178.131 201.17 171.513 205.713 163.601C208.974 157.744 211.425 151.312 211.936 144.588C211.899 141.328 212.203 138.021 211.459 134.828C210.704 129.3 208.276 124.13 205.033 119.628C202.067 122.411 198.936 125 195.645 127.39C193.614 128.707 191.397 129.52 188.993 129.821C187.879 129.581 186.836 129.164 185.865 128.565C181.955 126.223 180.15 121.808 177.049 118.649C175.641 116.933 173.759 115.711 172.269 114.082C171.352 112.786 171.368 111.117 170.702 109.715C170.116 108.73 169.361 107.86 168.772 106.878C168.057 106.614 167.16 106.208 166.534 106.878C165.065 107.742 165.265 109.614 165.292 111.059C166.26 111.171 166.598 112.193 167.14 112.864C165.711 111.303 163.69 110.609 161.92 109.543C160.748 108.909 159.743 108.05 158.588 107.406C158.707 104.319 160.197 101.502 160.759 98.4926C161.151 96.6509 162.214 94.948 162.147 93.0285C161.876 91.3392 160.928 89.8564 159.922 88.5123C156.229 83.6441 151.655 79.3142 149.252 73.5894C148.033 70.3936 146.611 67.1842 146.448 63.7176C145.917 61.4256 145.656 59.1032 145.666 56.7504C145.247 54.1571 145.538 51.5368 145.957 48.9707C146.645 46.1642 147.274 43.2764 148.696 40.734C149.868 41.973 148.629 43.6149 149.163 45.0301C150.233 49.0892 151.191 53.3379 153.751 56.7741C155.938 60.1324 158.206 63.4806 161.046 66.3311C172.255 77.3946 186.823 84.3314 201.597 89.3689C208.754 91.979 216.246 93.4686 223.68 95.0462C228.741 95.747 233.796 96.5798 238.901 96.8946C245.198 97.5277 251.535 97.5209 257.866 97.5785C260.239 97.697 262.558 96.9793 264.938 97.1892C257.189 98.7905 249.348 100.063 241.433 100.358C238.197 100.828 234.916 100.503 231.653 100.578C229.306 100.707 226.957 100.165 224.611 100.189C223.165 100.206 221.774 99.7147 220.342 99.5793C215.596 99.1324 210.93 98.066 206.313 96.9183C204.464 96.5561 202.792 95.6014 200.943 95.2764C195.097 93.1808 189.491 90.5707 184.125 87.4459C181.115 85.611 177.973 84.003 175.302 81.7077C173.545 80.6886 172.435 78.8842 170.664 77.8957C172.926 81.3725 175.905 84.284 178.698 87.3173C183.597 91.4373 188.353 95.835 193.919 99.0579C197.01 101.147 200.239 102.978 203.618 104.559C207.139 106.391 210.714 108.158 214.472 109.461C222.4 112.386 230.359 115.288 238.444 117.783C247.154 120.86 256.092 123.507 264.261 127.932C273.121 132.198 280.924 138.965 285.721 147.598C287.607 150.598 288.7 153.993 289.997 157.27C291.09 161.427 292.147 165.652 292.404 169.949C292.698 174.959 292.546 179.956 291.943 184.939C291.483 186.964 291.09 189.005 290.701 191.033C290.054 193.535 289.259 195.999 288.409 198.45C284.946 206.772 280.044 214.138 273.703 220.55C271.837 222.314 270.074 224.18 268.205 225.937C266.583 227.592 264.684 228.916 263.042 230.554C261.475 231.726 260.358 233.381 258.875 234.654C256.85 236.702 255.022 238.913 253.397 241.289C250.394 245.477 248.265 250.572 248.563 255.799C251.545 252.675 253.841 249.025 256.779 245.89C258.841 243.375 261.421 241.344 263.963 239.339C269.048 235.467 274.918 232.883 280.338 229.576C283.744 227.981 286.706 225.612 289.726 223.401C293.897 220.276 297.252 216.248 300.356 212.104C303.41 207.266 306.274 202.252 308.18 196.846C310.198 191.639 311.921 186.303 312.821 180.765C313.366 178.483 313.742 176.174 313.949 173.842C314.528 169.034 314.954 164.224 314.798 159.406Z" fill="white"/>
<path d="M225.102 261.334C225.491 252.769 228.159 244.461 231.602 236.655C232.533 233.696 234.34 231.14 235.854 228.455C237.096 226.563 238.108 224.504 239.554 222.751C241.876 219.981 243.803 216.894 246.331 214.287C248.495 211.772 250.668 209.26 252.909 206.819C259.64 199.286 265.842 191.07 269.674 181.669C270.317 179.776 271.025 177.911 271.665 176.015C272.971 171.749 273.483 167.389 273.195 162.937C272.643 158.966 271.208 154.954 268.228 152.151C265.672 149.781 262.047 148.867 258.631 149.087C252.838 149.558 247.652 152.561 243.261 156.187C241.697 157.507 240.742 159.332 239.706 161.058C239.706 161.19 239.706 161.448 239.706 161.586C243.65 158.242 248.518 156.285 253.373 154.673C254.548 154.447 255.746 154.243 256.918 153.962C260.29 153.671 264.007 155.188 265.608 158.309C267.721 161.823 267.677 166.031 267.358 169.975C267.037 172.481 266.238 174.888 265.561 177.315C262.405 185.941 256.562 193.284 249.849 199.466C247.452 202.018 244.923 204.432 242.262 206.707C233.714 214.28 225.487 222.717 220.785 233.259C219.624 235.331 218.784 237.525 218.26 239.837C215.802 246.056 214.898 252.722 214.14 259.323C213.635 259.245 213.131 259.171 212.633 259.107C212.62 257.895 212.714 256.693 212.914 255.498L212.775 254.719C213.165 248.344 212.454 241.75 209.989 235.778C209.129 233.523 207.552 231.675 206.252 229.674C205.47 228.398 204.197 227.524 203.147 226.468C199.884 223.401 195.543 221.979 191.342 220.706C189.206 220.317 187.09 219.795 184.964 219.331C187.49 219.416 189.995 219.768 192.51 220.002C195.811 219.68 199.054 218.973 202.331 218.441C205.402 217.761 208.587 218.549 211.658 217.96C215.057 217.425 218.602 215.987 220.416 212.886C220.416 212.388 220.386 211.9 220.376 211.413C219.925 210.732 219.549 210.011 219.248 209.253C218.493 207.841 217.539 206.582 216.377 205.475C215.216 204.368 213.913 203.471 212.464 202.784C211.14 202.113 209.911 201.301 208.777 200.343C208.672 198.091 209.559 195.854 209.045 193.609L208.002 193.497C207.45 195.132 207.25 196.964 206.133 198.349C204.369 200.969 201.959 203.244 198.98 204.402C197.026 205.045 194.924 204.862 192.913 205.211C190.262 204.889 187.55 204.767 185.008 203.88C182.543 202.919 180.031 201.798 178.149 199.882C177.154 198.972 175.702 198.366 175.329 196.944C174.063 192.218 171.951 187.905 168.998 184.005C166.96 181.767 165.037 179.404 162.739 177.42C161.71 176.614 162.234 175.179 162.204 174.075C166.063 172.515 168.545 168.567 169.025 164.518C169.909 159.311 168.68 153.648 165.2 149.595C164.475 148.708 163.412 148.221 162.62 147.418C161.875 146.071 162.305 144.456 162.085 142.997C161.351 138.792 159.932 134.828 157.833 131.111C156.72 129.283 155.254 127.709 153.92 126.067C150.961 122.986 147.227 120.792 143.422 118.917C133.252 114.103 121.125 114.505 110.82 118.781C106.666 120.755 102.78 123.419 99.8073 126.981C96.195 130.86 93.5476 135.776 92.9992 141.091C92.4101 144.412 92.0987 147.967 93.27 151.203C94.3635 154.965 96.6047 158.231 97.9622 161.901C98.7442 163.855 98.9575 165.943 99.5297 167.944C99.6075 169.312 99.5804 170.68 99.7463 172.044C99.0455 172.372 98.3109 172.599 97.5492 172.731C96.3744 171.275 95.027 169.955 93.8523 168.489C92.251 166.336 90.2807 164.457 88.9333 162.121C88.2359 160.872 87.4539 159.684 86.5872 158.546C85.9101 157.321 85.5682 155.943 84.9724 154.673C83.8721 152.381 83.8856 149.734 84.1903 147.256C84.4882 144.592 85.9948 142.323 87.0882 139.947C88.6117 136.792 90.3721 133.779 92.3729 130.904C93.5172 129.472 94.719 128.057 95.5044 126.378C93.507 126.324 91.7093 127.245 89.9557 128.074C86.9325 129.577 84.451 131.906 82.132 134.32C77.2062 140.13 73.9596 147.825 74.9177 155.516C74.8398 157.954 75.8757 160.202 76.4039 162.544C77.2536 166.059 79.031 169.254 80.3411 172.613C83.0461 178.331 86.1031 183.859 89.5054 189.194C92.1494 192.455 94.1028 196.26 97.17 199.178C101.927 204.283 106.947 209.124 111.954 214.013C115.299 216.945 118.258 220.3 121.708 223.12C126.562 227.781 131.617 232.226 136.732 236.6C139.66 239.431 143.032 241.726 146.076 244.411C151.492 248.372 156.571 252.79 162.234 256.412C165.258 258.822 168.67 260.678 171.737 263.024C175.539 265.613 179.507 267.946 183.298 270.563C184.625 271.633 186.24 272.245 187.601 273.248C204.004 283.695 220.711 293.668 236.859 304.522C238.579 305.693 240.261 306.916 242.154 307.782C241.673 306.445 240.59 305.46 239.835 304.288C237.259 300.206 234.076 296.478 232.045 292.07C230.021 288.607 228.619 284.832 227.228 281.085C225.206 274.839 224.678 268.244 224.854 261.713L225.102 261.334ZM120.719 206.044C117.587 203.054 114.151 200.156 112.347 196.145C111.778 193.711 112.14 191.172 112.513 188.724C112.777 185.958 113.471 183.26 113.66 180.467C113.786 177.562 113.897 174.634 113.525 171.739C112.892 168.523 112.35 165.202 110.63 162.341C109.148 159 107.157 155.997 104.655 153.326C102.99 151.891 101.297 150.482 99.7362 148.935C98.856 148.109 98.7442 146.877 98.7747 145.749C98.944 140.326 100.63 134.815 104.249 130.681C105.986 128.646 107.959 126.882 110.173 125.386C112.387 123.886 114.764 122.712 117.3 121.859C119.917 121.171 122.513 120.271 125.245 120.179C128.969 120.007 132.795 119.888 136.397 121.009C138.956 121.815 141.577 122.549 143.882 123.954C148.256 126.75 152.258 130.441 154.414 135.238C154.898 136.531 155.877 137.604 156.12 138.989C156.686 141.595 157.549 144.185 157.451 146.88C157.427 149.355 156.09 151.62 156.225 154.115C157.789 154.115 159.194 152.984 160.775 153.39C161.205 153.543 161.578 153.786 161.892 154.115C162.207 154.443 162.431 154.826 162.566 155.259C163.741 158.059 163.379 161.16 163.06 164.092C162.935 165.815 162.624 167.66 161.527 169.051C157.81 171.831 153.151 172.748 148.862 174.305C147.162 174.966 145.341 175.087 143.574 175.538C141.12 176.079 138.76 177.102 136.221 177.217C134.261 177.298 132.307 177.251 130.354 177.075C127.825 176.648 125.33 175.903 122.754 175.903L123.048 175.355C128.492 174.404 133.915 176.526 139.366 175.778C136.001 174.952 132.571 174.431 129.169 173.791C125.824 173.93 122.374 174.244 119.311 175.741C118.796 176.222 118.265 176.679 117.747 177.136C120.319 177.803 123.048 177.765 125.57 178.7C128.353 179.248 130.946 180.694 133.848 180.612C134.609 180.612 135.374 180.643 136.143 180.687C133.868 183.808 132.345 187.39 130.364 190.694C127.544 195.742 126.112 201.385 125.093 207.032C125.073 207.912 125.103 208.793 125.181 209.669C123.498 208.732 122.188 207.269 120.719 206.044ZM207.216 255.315C204.908 254.171 202.416 253.406 200.222 252.035C197.659 250.572 195.049 249.187 192.486 247.742C187.175 245.189 182.161 242.071 176.876 239.471C171.544 236.641 166.155 233.946 160.745 231.272C149.688 225.953 138.259 220.862 128.956 212.693C128.478 212.175 127.629 211.792 127.69 210.98C127.463 208.105 128.895 205.512 129.43 202.746C131.322 196.365 134.237 190.251 138.347 184.98C140.906 182.535 143.354 179.749 146.787 178.51C148.584 177.945 150.409 178.899 152.22 178.51C154.147 178.314 156.053 179.069 157.586 180.206C162.197 182.986 165.481 187.397 168.216 191.92C169.855 194.699 171.202 197.648 173.014 200.326C173.653 201.247 174.622 201.849 175.454 202.574C176.758 203.62 177.804 204.987 179.321 205.766C183.728 208.41 189.064 208.891 194.105 208.813C197.138 208.227 200.476 208.146 203.052 206.24C205.991 204.232 209.742 205.069 212.934 205.901C215.602 206.728 217.982 209.165 217.738 212.124C216.225 213.654 213.943 213.773 212.007 214.467C210.487 215.008 208.902 214.588 207.372 214.368C202.565 215.262 197.791 216.352 192.94 216.965C188.773 217.246 184.571 217.615 180.404 217.094C175.654 217.158 171.212 214.917 167.495 212.131C165.813 210.804 163.974 209.625 162.624 207.946C160.508 206.054 158.517 204.016 156.581 201.93C155.26 200.079 153.554 198.342 151.333 197.634C152.021 199.032 153.029 200.244 153.679 201.676C157.146 206.589 160.836 211.389 165.163 215.587C167.587 217.541 169.892 219.707 172.807 220.889C178.217 223.323 184.152 224.108 189.805 225.845C193.265 226.624 196.728 227.829 199.545 230.033C202.622 233.002 205.277 236.523 206.698 240.575C207.528 242.637 208.076 244.793 208.75 246.909C209.42 249.025 209.187 251.412 209.965 253.548C210.676 255.109 210.554 257.028 212.058 258.132C210.395 257.275 208.848 256.236 207.216 255.315Z" fill="white"/>
</svg>
