<svg width="18" height="18" viewBox="0 0 18 18" fill="none" xmlns="http://www.w3.org/2000/svg">
<path d="M7.78463 13.56C8.01409 13.56 8.19552 13.4586 8.32359 13.2612L13.3663 5.32091C13.4624 5.16616 13.4997 5.04876 13.4997 4.92603C13.4997 4.63253 13.3076 4.44043 13.0141 4.44043C12.8007 4.44043 12.6833 4.5098 12.5552 4.71258L7.76329 12.3487L5.27661 9.09361C5.14321 8.90684 5.0098 8.83214 4.8177 8.83214C4.51353 8.83214 4.30542 9.04025 4.30542 9.33374C4.30542 9.45647 4.35878 9.59522 4.46017 9.72328L7.22967 13.2505C7.38975 13.4586 7.55518 13.56 7.78463 13.56Z" fill="#2C9C2A"/>
</svg>
