<svg width="29" height="28" viewBox="0 0 29 28" fill="none" xmlns="http://www.w3.org/2000/svg">
<path d="M6.29102 10.1299H8.01367V8.45996C8.01367 7.60742 8.46191 7.18555 9.2793 7.18555H10.9316V5.46289H9.17383C7.27539 5.46289 6.29102 6.43848 6.29102 8.31934V10.1299ZM12.2148 7.18555H16.7764V5.46289H12.2148V7.18555ZM20.9775 10.1299H22.7002V8.31934C22.7002 6.43848 21.707 5.46289 19.8174 5.46289H18.0596V7.18555H19.7119C20.5205 7.18555 20.9775 7.60742 20.9775 8.45996V10.1299ZM10.6592 13.6631C10.6592 14.1377 11.002 14.4717 11.4941 14.4717H13.6738V16.6689C13.6738 17.1523 14.0166 17.4863 14.4912 17.4863C14.9746 17.4863 15.3262 17.1523 15.3262 16.6689V14.4717H17.5146C17.998 14.4717 18.3408 14.1377 18.3408 13.6631C18.3408 13.1709 17.998 12.8281 17.5146 12.8281H15.3262V10.6396C15.3262 10.1475 14.9746 9.81348 14.4912 9.81348C14.0166 9.81348 13.6738 10.1562 13.6738 10.6396V12.8281H11.4941C11.002 12.8281 10.6592 13.1709 10.6592 13.6631ZM20.9775 15.9219H22.7002V11.4131H20.9775V15.9219ZM6.29102 15.9219H8.01367V11.4131H6.29102V15.9219ZM18.0596 21.8721H19.8174C21.707 21.8721 22.7002 20.8877 22.7002 19.0156V17.1963H20.9775V18.8662C20.9775 19.7188 20.5205 20.1494 19.7119 20.1494H18.0596V21.8721ZM9.17383 21.8721H10.9316V20.1494H9.2793C8.46191 20.1494 8.01367 19.7188 8.01367 18.8662V17.1963H6.29102V19.0156C6.29102 20.8965 7.27539 21.8721 9.17383 21.8721ZM12.2148 21.8721H16.7764V20.1494H12.2148V21.8721Z" fill="#4D4DE8"/>
</svg>
