<svg width="64" height="64" viewBox="0 0 64 64" fill="none" xmlns="http://www.w3.org/2000/svg">
<path d="M12.0915 43.2433H15.8281V46.2768C15.8281 50.5759 18.0982 52.8259 22.4576 52.8259H51.8884C56.2478 52.8259 58.5179 50.5759 58.5179 46.2768V27.7143C58.5179 23.4152 56.2478 21.1652 51.8884 21.1652H49.4375C48.9152 21.1652 48.4933 21.1451 48.1518 21.0849V16.2032C48.1518 11.9041 45.8817 9.65405 41.5424 9.65405H12.0915C7.73215 9.65405 5.48215 11.9041 5.48215 16.2032V36.6942C5.48215 41.0134 7.73215 43.2433 12.0915 43.2433ZM12.3527 39.2456C10.5045 39.2456 9.47991 38.2813 9.47991 36.3326V16.5648C9.47991 14.6161 10.5045 13.6719 12.3527 13.6719H41.2813C43.1094 13.6719 44.154 14.6161 44.154 16.5648V17.8505C43.3304 17.288 42.4464 17.0067 41.2411 17.0067H33.1049C31.4777 17.0067 30.4129 17.509 29.3281 18.5938L27.8013 20.1005C26.8973 20.9844 26.4152 21.1652 24.9085 21.1652H22.4576C18.0982 21.1652 15.8281 23.4152 15.8281 27.7143V39.2456H12.3527ZM22.7188 48.8081C20.8504 48.8081 19.846 47.8438 19.846 45.9152V28.0759C19.846 26.1273 20.8504 25.1831 22.7188 25.1831H25.9933C27.6607 25.1831 28.7254 24.8416 29.7098 23.8371L31.6183 21.9688C32.3616 21.2657 32.9442 21.0246 34.0893 21.0246H40.2567C41.4018 21.0246 41.9844 21.2657 42.7478 21.9688L44.6362 23.8371C45.6205 24.8416 46.6853 25.1831 48.3728 25.1831H51.6272C53.4955 25.1831 54.5 26.1273 54.5 28.0759V45.9152C54.5 47.8438 53.4955 48.8081 51.6272 48.8081H22.7188ZM37.183 46.2366C42.4263 46.2366 46.6853 41.9777 46.6853 36.7143C46.6853 31.471 42.4263 27.2322 37.183 27.2322C31.9397 27.2322 27.6808 31.471 27.6808 36.7143C27.6808 41.9777 31.9397 46.2366 37.183 46.2366ZM49.2366 32.3148C50.5022 32.3148 51.5268 31.3103 51.5268 30.0447C51.5268 28.7791 50.5022 27.7545 49.2366 27.7545C47.971 27.7545 46.9665 28.7791 46.9665 30.0447C46.9665 31.3103 47.971 32.3148 49.2366 32.3148ZM37.183 42.7612C33.8482 42.7612 31.1563 40.0491 31.1563 36.7143C31.1563 33.3996 33.8482 30.6875 37.183 30.6875C40.5179 30.6875 43.2098 33.3996 43.2098 36.7143C43.2098 40.0491 40.5179 42.7612 37.183 42.7612Z" fill="#4D4DE8"/>
</svg>
