<svg width="28" height="28" viewBox="0 0 28 28" fill="none" xmlns="http://www.w3.org/2000/svg">
<path d="M8.99902 23.3232C9.47363 23.3232 9.78125 23.0771 10.5283 22.3477L13.9209 18.9902C13.9561 18.9463 14.0352 18.9463 14.0703 18.9902L17.4717 22.3477C18.2188 23.0771 18.5176 23.3232 19.001 23.3232C19.7041 23.3232 20.1436 22.8398 20.1436 22.0488V6.70312C20.1436 4.9541 19.2295 4.03125 17.498 4.03125H10.4932C8.76172 4.03125 7.84766 4.9541 7.84766 6.70312V22.0488C7.84766 22.8398 8.28711 23.3232 8.99902 23.3232ZM9.83398 20.4316C9.71973 20.5459 9.5791 20.5107 9.5791 20.3438V6.81738C9.5791 6.11426 9.93066 5.77148 10.6338 5.77148H17.3574C18.0605 5.77148 18.4121 6.11426 18.4121 6.81738V20.3438C18.4121 20.5107 18.2803 20.5459 18.1572 20.4316L14.5801 16.9688C14.2109 16.5996 13.7891 16.5996 13.4111 16.9688L9.83398 20.4316Z" fill="black"/>
</svg>
