<svg width="28" height="28" viewBox="0 0 28 28" fill="none" xmlns="http://www.w3.org/2000/svg">
<path d="M15.1689 21.8379C15.6523 21.8379 16.0303 21.6533 16.4961 21.2139L23.457 14.6836C23.7998 14.3584 23.9316 13.9805 23.9316 13.6553C23.9316 13.3213 23.7998 12.9521 23.457 12.627L16.4961 6.14062C15.9863 5.66602 15.6523 5.47266 15.1865 5.47266C14.4834 5.47266 13.9824 6.01758 13.9824 6.70312V9.83203H13.7627C7.69824 9.83203 4.88574 13.7256 4.88574 20.1064C4.88574 21.2227 5.36035 21.8027 5.97559 21.8027C6.44141 21.8027 6.87207 21.6533 7.21484 21.0117C8.59473 18.4453 10.5547 17.5049 13.7627 17.5049H13.9824V20.6514C13.9824 21.3369 14.4834 21.8379 15.1689 21.8379ZM15.7314 19.5703C15.6523 19.5703 15.5996 19.5176 15.5996 19.4297V16.1865C15.5996 15.9844 15.5117 15.8965 15.3096 15.8965H14.1846C10.1592 15.8965 7.59277 17.1709 6.53809 19.3682C6.51172 19.4209 6.48535 19.4473 6.4502 19.4473C6.41504 19.4473 6.38867 19.4209 6.38867 19.3594C6.5293 15.167 8.52441 11.4316 14.1846 11.4316H15.3096C15.5117 11.4316 15.5996 11.3438 15.5996 11.1416V7.81934C15.5996 7.74023 15.6523 7.6875 15.7314 7.6875C15.7842 7.6875 15.8369 7.71387 15.8809 7.75781L21.8838 13.4883C21.9453 13.5586 21.9717 13.6025 21.9717 13.6553C21.9717 13.708 21.9541 13.752 21.8838 13.8223L15.8721 19.5C15.8281 19.5439 15.7754 19.5703 15.7314 19.5703Z" fill="black"/>
</svg>
