<svg width="28" height="28" viewBox="0 0 28 28" fill="none" xmlns="http://www.w3.org/2000/svg">
<path d="M12.1094 21.0933C12.4663 21.0933 12.7485 20.9355 12.9478 20.6284L20.792 8.27686C20.9414 8.03613 20.9995 7.85352 20.9995 7.6626C20.9995 7.20605 20.7007 6.90723 20.2441 6.90723C19.9121 6.90723 19.7295 7.01514 19.5303 7.33057L12.0762 19.209L8.20801 14.1455C8.00049 13.855 7.79297 13.7388 7.49414 13.7388C7.021 13.7388 6.69727 14.0625 6.69727 14.519C6.69727 14.71 6.78027 14.9258 6.93799 15.125L11.2461 20.6118C11.4951 20.9355 11.7524 21.0933 12.1094 21.0933Z" fill="black"/>
</svg>
