<svg width="14" height="14" viewBox="0 0 14 14" fill="none" xmlns="http://www.w3.org/2000/svg">
<path d="M7.19336 10.4692C7.27686 10.667 7.44824 10.7988 7.65039 10.7988C7.97998 10.7988 8.2085 10.5571 8.2085 10.2583C8.2085 10.0957 8.11621 9.88916 8.05469 9.73535L6.86816 6.81738L8.05469 3.89941C8.11621 3.74561 8.2085 3.53467 8.2085 3.37646C8.2085 3.07764 7.97998 2.83594 7.65039 2.83594C7.44824 2.83594 7.27686 2.96777 7.19336 3.16113L5.98486 6.12744C5.88818 6.36035 5.7915 6.59326 5.7915 6.81738C5.7915 7.03711 5.88818 7.27002 5.98486 7.50732L7.19336 10.4692Z" fill="#666E80"/>
</svg>
