<svg width="18" height="18" viewBox="0 0 18 18" fill="none" xmlns="http://www.w3.org/2000/svg">
<path d="M4.62121 12.2467C4.38391 12.484 4.37261 12.9078 4.62686 13.1564C4.87547 13.405 5.29923 13.3994 5.53653 13.1621L8.9944 9.69854L12.4579 13.1621C12.7009 13.405 13.119 13.405 13.3676 13.1564C13.6105 12.9021 13.6162 12.4897 13.3676 12.2467L9.90972 8.78322L13.3676 5.32535C13.6162 5.08239 13.6162 4.66429 13.3676 4.41568C13.1133 4.17273 12.7009 4.16708 12.4579 4.41003L8.9944 7.87355L5.53653 4.41003C5.29923 4.17273 4.86982 4.16143 4.62686 4.41568C4.37826 4.66429 4.38391 5.08804 4.62121 5.32535L8.08473 8.78322L4.62121 12.2467Z" fill="#CE6A6A"/>
</svg>
