<svg width="28" height="28" viewBox="0 0 28 28" fill="none" xmlns="http://www.w3.org/2000/svg">
<path d="M14 16.0898C15.9863 16.0898 17.375 14.6045 17.375 12.4775V7.01074C17.375 4.88379 15.9863 3.39844 14 3.39844C12.0225 3.39844 10.625 4.88379 10.625 7.01074V12.4775C10.625 14.6045 12.0225 16.0898 14 16.0898ZM14 14.4639C12.9717 14.4639 12.3213 13.6729 12.3213 12.5127V6.97559C12.3213 5.81543 12.9717 5.02441 14 5.02441C15.0283 5.02441 15.6787 5.81543 15.6787 6.97559V12.5127C15.6787 13.6729 15.0283 14.4639 14 14.4639ZM9.95703 22.7871H18.043C18.5088 22.7871 18.8955 22.4092 18.8955 21.9521C18.8955 21.4863 18.5088 21.1172 18.043 21.1172H14.8174V19.333C18.2891 18.999 20.7148 16.5117 20.7148 12.873V11.1416C20.7148 10.6758 20.3457 10.3154 19.8799 10.3154C19.4141 10.3154 19.0273 10.6758 19.0273 11.1416V12.8115C19.0273 15.8086 16.9971 17.7773 14 17.7773C11.0029 17.7773 8.97266 15.8086 8.97266 12.8115V11.1416C8.97266 10.6758 8.59473 10.3154 8.12891 10.3154C7.66309 10.3154 7.28516 10.6758 7.28516 11.1416V12.873C7.28516 16.5117 9.71094 18.999 13.1826 19.333V21.1172H9.95703C9.49121 21.1172 9.10449 21.4863 9.10449 21.9521C9.10449 22.4092 9.49121 22.7871 9.95703 22.7871Z" fill="#AAADB3"/>
</svg>
