<svg width="28" height="28" viewBox="0 0 28 28" fill="none" xmlns="http://www.w3.org/2000/svg">
<g clip-path="url(#clip0_1160_61850)">
<path d="M0.640625 20.7051C1.02734 20.7051 1.36133 20.5908 1.73926 20.3711L10.748 15.0801C11.2666 14.7725 11.5918 14.4121 11.6973 13.9814V19.0527C11.6973 20.1162 12.3477 20.7051 13.1211 20.7051C13.5078 20.7051 13.8418 20.5908 14.2197 20.3711L23.2285 15.0801C23.7559 14.7725 24.0723 14.4121 24.1865 13.9814V19.7031C24.1865 20.5381 24.6084 20.9688 25.4521 20.9688H27.5176C28.3525 20.9688 28.7832 20.5381 28.7832 19.7031V7.60938C28.7832 6.75684 28.3525 6.34375 27.5176 6.34375H25.4521C24.6172 6.34375 24.1865 6.77441 24.1865 7.60938V13.2695C24.0723 12.8389 23.7559 12.4961 23.2285 12.1797L14.2197 6.88867C13.8418 6.66895 13.5078 6.55469 13.1211 6.55469C12.3477 6.55469 11.6973 7.13477 11.6973 8.20703V13.2695C11.5918 12.8389 11.2754 12.4961 10.748 12.1797L1.73926 6.88867C1.35254 6.66895 1.02734 6.55469 0.631836 6.55469C-0.141602 6.55469 -0.783203 7.13477 -0.783203 8.20703V19.0527C-0.783203 20.1162 -0.132812 20.7051 0.640625 20.7051Z" fill="#4D4DE8"/>
</g>
<defs>
<clipPath id="clip0_1160_61850">
<rect width="28" height="28" fill="white"/>
</clipPath>
</defs>
</svg>
