<svg width="56" height="56" viewBox="0 0 56 56" fill="none" xmlns="http://www.w3.org/2000/svg">
<path d="M27.9648 12.7539C29.4941 12.7539 30.9531 13 32.3242 13.4219L33.7129 10.082C31.9023 9.4668 29.9688 9.13281 27.9648 9.13281C25.9785 9.13281 24.0273 9.4668 22.2168 10.082L23.623 13.4219C24.9941 13 26.4531 12.7539 27.9648 12.7539ZM40.8848 20.5762L44.207 19.1875C42.4492 15.6895 39.584 12.8418 36.0859 11.0664L34.7148 14.4062C37.3516 15.7598 39.5137 17.9219 40.8848 20.5762ZM21.2324 14.4062L19.8438 11.084C16.3633 12.8418 13.498 15.707 11.7402 19.1875L15.0801 20.5762C16.4512 17.9395 18.5957 15.7773 21.2324 14.4062ZM22.8848 25.6914C23.9219 25.6914 24.8008 24.7773 24.8008 23.4941C24.8008 22.2109 23.9219 21.2969 22.8848 21.2969C21.8652 21.2969 21.0039 22.2109 21.0039 23.4941C21.0039 24.7773 21.8652 25.6914 22.8848 25.6914ZM33.1328 25.6914C34.1699 25.6914 35.0488 24.7773 35.0488 23.4941C35.0488 22.2109 34.1699 21.2969 33.1328 21.2969C32.0957 21.2969 31.252 22.2109 31.252 23.4941C31.252 24.7773 32.0957 25.6914 33.1328 25.6914ZM42.5371 27.3086C42.5371 28.8203 42.291 30.2969 41.8867 31.668L45.209 33.0566C45.8242 31.2461 46.1758 29.3125 46.1758 27.3086C46.1758 25.3047 45.8242 23.3711 45.209 21.5605L41.8691 22.9492C42.3086 24.3203 42.5371 25.7969 42.5371 27.3086ZM13.4629 27.3086C13.4629 25.7969 13.6914 24.3203 14.1133 22.9668L10.7383 21.5605C10.1406 23.3711 9.80664 25.3047 9.80664 27.3086C9.80664 29.3125 10.1406 31.2285 10.7559 33.0391L14.1133 31.6504C13.6914 30.2969 13.4629 28.8203 13.4629 27.3086ZM21.8125 32.3184C21.8125 33.4961 24.291 35.9395 27.9648 35.9395C31.6562 35.9395 34.1348 33.4961 34.1348 32.3184C34.1348 31.8965 33.7129 31.6855 33.3262 31.8789C32.043 32.5469 30.5312 33.3379 27.9648 33.3379C25.416 33.3379 23.9043 32.5469 22.6211 31.8789C22.2344 31.6855 21.8125 31.8965 21.8125 32.3184ZM34.7148 40.2109L36.0859 43.5508C39.584 41.7754 42.4492 38.9102 44.207 35.4297L40.9023 34.041C39.5312 36.6953 37.3516 38.8398 34.7148 40.2109ZM15.0977 34.041L11.7578 35.4297C13.5156 38.9102 16.3633 41.7754 19.8613 43.5332L21.2324 40.1934C18.5957 38.8223 16.4512 36.6777 15.0977 34.041ZM27.9824 41.8457C26.4531 41.8457 24.9941 41.6172 23.623 41.1777L22.2344 44.5352C24.0449 45.1504 25.9961 45.4844 27.9824 45.4844C29.9863 45.4844 31.9199 45.1504 33.7305 44.5527L32.3242 41.1953C30.9531 41.6172 29.4941 41.8457 27.9824 41.8457Z" fill="white"/>
</svg>
