<svg width="28" height="28" viewBox="0 0 28 28" fill="none" xmlns="http://www.w3.org/2000/svg">
<path d="M19.906 14.1309L13.4109 20.626C11.7673 22.2784 9.55249 22.1202 8.13745 20.6963C6.70483 19.2725 6.54663 17.0752 8.20776 15.4141L17.0847 6.53715C18.0515 5.57035 19.4929 5.40336 20.4334 6.34379C21.3738 7.29301 21.198 8.72562 20.2312 9.68363L11.5212 18.4112C11.1345 18.8067 10.6775 18.6924 10.3962 18.4287C10.1414 18.1563 10.0359 17.6993 10.4226 17.3037L16.4959 11.2305C16.8035 10.9141 16.821 10.4571 16.5222 10.1582C16.2234 9.87699 15.7664 9.88578 15.4587 10.1934L9.35913 16.293C8.40991 17.2422 8.44507 18.6924 9.28882 19.5362C10.2029 20.4502 11.5828 20.4239 12.532 19.4746L21.2859 10.712C22.991 9.01566 22.9294 6.77445 21.4353 5.28031C19.9675 3.82133 17.6912 3.71586 15.9861 5.42094L7.0564 14.3594C4.83276 16.5918 4.98218 19.7911 7.01245 21.8213C9.03394 23.834 12.2419 23.9922 14.4656 21.7686L21.0046 15.2383C21.3035 14.9395 21.3035 14.3946 20.9959 14.1133C20.7058 13.7969 20.2136 13.8409 19.906 14.1309Z" fill="#666E80"/>
</svg>
