<svg width="28" height="28" viewBox="0 0 28 28" fill="none" xmlns="http://www.w3.org/2000/svg">
<path d="M8.18164 19.6416C7.64551 19.6416 7.25879 20.0459 7.25879 20.5908C7.25879 21.1357 7.64551 21.54 8.18164 21.54H19.792C20.3369 21.54 20.7324 21.1357 20.7324 20.5908C20.7324 20.0459 20.3369 19.6416 19.792 19.6416H14.2021C14.3955 19.6064 14.5713 19.501 14.7119 19.3516L20.3281 13.7881C20.5391 13.5771 20.6445 13.3398 20.6445 13.085C20.6445 12.54 20.249 12.1445 19.7217 12.1445C19.4492 12.1445 19.2031 12.2588 19.0273 12.4346L17.2168 14.21L14.8701 16.7852L14.958 14.9395V6.75684C14.958 6.17676 14.5625 5.78125 14 5.78125C13.4287 5.78125 13.0332 6.17676 13.0332 6.75684V14.9395L13.1211 16.7939L10.7744 14.21L8.97266 12.4346C8.78809 12.25 8.55078 12.1445 8.27832 12.1445C7.74219 12.1445 7.35547 12.54 7.35547 13.085C7.35547 13.3398 7.45215 13.5771 7.66309 13.7881L13.2793 19.3516C13.4199 19.501 13.5957 19.6064 13.7891 19.6416H8.18164Z" fill="white"/>
</svg>
