<svg width="28" height="28" viewBox="0 0 28 28" fill="none" xmlns="http://www.w3.org/2000/svg">
<path d="M15.1689 21.8379C15.6523 21.8379 16.0303 21.6533 16.4961 21.2139L23.457 14.6836C23.7998 14.3584 23.9316 13.9805 23.9316 13.6553C23.9316 13.3213 23.7998 12.9521 23.457 12.627L16.4961 6.14062C15.9863 5.66602 15.6523 5.47266 15.1865 5.47266C14.4834 5.47266 13.9824 6.01758 13.9824 6.70312V9.83203H13.7627C7.69824 9.83203 4.88574 13.7256 4.88574 20.1064C4.88574 21.2227 5.36035 21.8027 5.97559 21.8027C6.44141 21.8027 6.87207 21.6533 7.21484 21.0117C8.59473 18.4453 10.5547 17.5049 13.7627 17.5049H13.9824V20.6514C13.9824 21.3369 14.4834 21.8379 15.1689 21.8379Z" fill="#4D4DE8"/>
</svg>
