<svg width="28" height="28" viewBox="0 0 28 28" fill="none" xmlns="http://www.w3.org/2000/svg">
<path d="M9.63197 20.9688H11.6974C12.5324 20.9688 12.963 20.5381 12.963 19.7031V7.60938C12.963 6.75684 12.5324 6.35254 11.6974 6.34375H9.63197C8.79701 6.34375 8.36634 6.77441 8.36634 7.60938V19.7031C8.35755 20.5381 8.78822 20.9688 9.63197 20.9688ZM16.3117 20.9688H18.3683C19.2033 20.9688 19.6339 20.5381 19.6339 19.7031V7.60938C19.6339 6.75684 19.2033 6.34375 18.3683 6.34375H16.3117C15.4679 6.34375 15.046 6.77441 15.046 7.60938V19.7031C15.046 20.5381 15.4679 20.9688 16.3117 20.9688Z" fill="white"/>
</svg>
